<svg width="42" height="40" viewBox="0 0 42 40" fill="none" xmlns="http://www.w3.org/2000/svg">
<rect x="0.458252" width="40.8333" height="40" rx="20" fill="#FF3E79"/>
<path fill-rule="evenodd" clip-rule="evenodd" d="M13.4844 23.25L16.0773 22.96C16.7 22.89 17.3125 23.1 17.7515 23.53L19.6298 25.37C22.5188 23.93 24.8871 21.62 26.3571 18.78L24.4686 16.93C24.0296 16.5 23.8152 15.9 23.8867 15.29L24.1827 12.77C24.3052 11.76 25.1729 11 26.2142 11H27.9802C29.1338 11 30.0933 11.94 30.0219 13.07C29.4808 21.61 22.5086 28.43 13.8008 28.96C12.6473 29.03 11.6877 28.09 11.6877 26.96V25.23C11.6775 24.22 12.4533 23.37 13.4844 23.25Z" fill="white"/>
</svg>
