<svg width="42" height="40" viewBox="0 0 42 40" fill="none" xmlns="http://www.w3.org/2000/svg">
<rect x="0.625" width="40.8333" height="40" rx="20" fill="#FF3E79"/>
<path fill-rule="evenodd" clip-rule="evenodd" d="M29.2083 11H12.8749C11.752 11 10.8435 11.9 10.8435 13L10.8333 31L14.9166 26H29.2083C30.3312 26 31.2499 25.1 31.2499 24V13C31.2499 11.9 30.3312 11 29.2083 11ZM22.0625 22H15.9375C15.376 22 14.9167 21.55 14.9167 21C14.9167 20.45 15.376 20 15.9375 20H22.0625C22.624 20 23.0833 20.45 23.0833 21C23.0833 21.55 22.624 22 22.0625 22ZM26.1458 17H15.9375C15.376 17 14.9167 16.55 14.9167 16C14.9167 15.45 15.376 15 15.9375 15H26.1458C26.7073 15 27.1667 15.45 27.1667 16C27.1667 16.55 26.7073 17 26.1458 17Z" fill="white"/>
<mask id="mask0_0_1880" style="mask-type:luminance" maskUnits="userSpaceOnUse" x="10" y="11" width="22" height="20">
<path fill-rule="evenodd" clip-rule="evenodd" d="M29.2083 11H12.8749C11.752 11 10.8435 11.9 10.8435 13L10.8333 31L14.9166 26H29.2083C30.3312 26 31.2499 25.1 31.2499 24V13C31.2499 11.9 30.3312 11 29.2083 11ZM22.0625 22H15.9375C15.376 22 14.9167 21.55 14.9167 21C14.9167 20.45 15.376 20 15.9375 20H22.0625C22.624 20 23.0833 20.45 23.0833 21C23.0833 21.55 22.624 22 22.0625 22ZM26.1458 17H15.9375C15.376 17 14.9167 16.55 14.9167 16C14.9167 15.45 15.376 15 15.9375 15H26.1458C26.7073 15 27.1667 15.45 27.1667 16C27.1667 16.55 26.7073 17 26.1458 17Z" fill="white"/>
</mask>
<g mask="url(#mask0_0_1880)">
</g>
</svg>
