<svg width="100" height="52" viewBox="0 0 100 52" fill="none" xmlns="http://www.w3.org/2000/svg">
<path fill-rule="evenodd" clip-rule="evenodd" d="M37.5198 0.592529C36.9675 0.592529 36.5198 1.04024 36.5198 1.59253V5.86748C36.5198 6.41977 36.9675 6.86748 37.5198 6.86748H74.6244C84.9623 6.86748 93.0815 14.6641 93.0815 24.757C93.0815 25.0425 93.313 25.274 93.5986 25.274H98.9919C99.2775 25.274 99.509 25.0425 99.509 24.757C99.509 11.2677 88.4411 0.592529 74.6244 0.592529H37.5198Z" fill="#6B7B84" stroke="#80949F" stroke-width="0.5"/>
<path fill-rule="evenodd" clip-rule="evenodd" d="M7.4629 25.7122C7.4629 25.4702 7.26667 25.2739 7.02461 25.2739H1.38751C1.14545 25.2739 0.949219 25.4702 0.949219 25.7122C0.949219 39.3616 11.3854 50.6311 24.8803 51.3686L68.1249 51.4064C68.6775 51.4069 69.1258 50.959 69.1258 50.4064V45.8267C69.1258 45.2745 68.678 44.8267 68.1258 44.8267H26.3684C15.919 44.7984 7.4629 36.283 7.4629 25.7122Z" fill="#6B7B84" stroke="#80949F" stroke-width="0.5"/>
<path fill-rule="evenodd" clip-rule="evenodd" d="M28.9358 39.7924C31.7317 39.7924 34.0605 39.2603 36.3607 38.1655L36.5195 38.0199V30.1855L35.6588 31.2649C34.0025 33.0378 31.7782 34.0137 29.2617 34.0137C24.5745 34.0137 19.8667 31.0459 19.8667 25.3738C19.8667 21.0874 23.1135 16.532 29.0969 16.532C30.2908 16.532 33.1942 16.8085 35.6546 19.368L36.5195 20.4117V12.6127L36.3677 12.4653C34.0239 11.3147 31.6336 10.7554 28.9074 10.7554C24.2453 10.7554 20.6064 11.9577 17.709 14.4289C15.8711 15.9777 12.8059 19.4485 12.8059 25.2923C12.8059 29.6131 14.3765 32.9875 17.7325 35.9144C20.8545 38.5962 24.3163 39.7924 28.9358 39.7924Z" fill="#6B7B84"/>
<path d="M28.9358 39.7924C31.7317 39.7924 34.0605 39.2603 36.3607 38.1655L36.5195 38.0199V30.1855L35.6588 31.2649C34.0025 33.0378 31.7782 34.0137 29.2617 34.0137C24.5745 34.0137 19.8667 31.0459 19.8667 25.3738C19.8667 21.0874 23.1135 16.532 29.0969 16.532C30.2908 16.532 33.1942 16.8085 35.6546 19.368L36.5195 20.4117V12.6127L36.3677 12.4653C34.0239 11.3147 31.6336 10.7554 28.9074 10.7554C24.2453 10.7554 20.6064 11.9577 17.709 14.4289C15.8711 15.9777 12.8059 19.4485 12.8059 25.2923C12.8059 29.6131 14.3765 32.9875 17.7325 35.9144C20.8545 38.5962 24.3163 39.7924 28.9358 39.7924" stroke="#80949F" stroke-width="0.5"/>
<path fill-rule="evenodd" clip-rule="evenodd" d="M49.1176 17.2888H50.5104C51.7879 17.2888 53.244 17.3571 54.346 18.093C54.8841 18.4695 55.7871 19.3412 55.7871 20.9246C55.7871 22.0946 55.2592 23.1437 54.3874 23.7984C53.2696 24.5932 51.9409 24.5476 50.8732 24.5476H49.1176V17.2888ZM52.247 29.8179C55.5457 29.8179 58.1278 28.8858 59.9209 27.1298C62.1267 24.9735 62.4563 22.0073 62.4563 20.4435C62.4563 18.7703 62.0514 15.5066 59.3359 13.1435C57.11 11.2328 54.735 10.7554 51.3849 10.7554H42.448V39.7924H49.2453V29.8179H52.247Z" fill="#6B7B84"/>
<path d="M49.1176 17.2888V17.0388H48.8676V17.2888H49.1176ZM54.346 18.093L54.4894 17.8881L54.4849 17.885L54.346 18.093ZM54.3874 23.7984L54.5323 24.0022L54.5375 23.9983L54.3874 23.7984ZM49.1176 24.5476H48.8676V24.7976H49.1176V24.5476ZM59.9209 27.1298L59.7462 26.9511L59.746 26.9512L59.9209 27.1298ZM59.3359 13.1435L59.5 12.9549L59.4987 12.9538L59.3359 13.1435ZM42.448 10.7554V10.5054H42.198V10.7554H42.448ZM42.448 39.7924H42.198V40.0424H42.448V39.7924ZM49.2453 39.7924V40.0424H49.4953V39.7924H49.2453ZM49.2453 29.8179V29.5679H48.9953V29.8179H49.2453ZM49.1176 17.2888V17.5388H50.5104V17.2888V17.0388H49.1176V17.2888ZM50.5104 17.2888V17.5388C51.7938 17.5388 53.1759 17.6122 54.2072 18.3009L54.346 18.093L54.4849 17.885C53.3121 17.1019 51.782 17.0388 50.5104 17.0388V17.2888ZM54.346 18.093L54.2027 18.2978C54.7019 18.6471 55.5371 19.4519 55.5371 20.9246H55.7871H56.0371C56.0371 19.2306 55.0663 18.2919 54.4894 17.8881L54.346 18.093ZM55.7871 20.9246H55.5371C55.5371 22.0184 55.0443 22.9925 54.2373 23.5984L54.3874 23.7984L54.5375 23.9983C55.4742 23.2949 56.0371 22.1707 56.0371 20.9246H55.7871ZM54.3874 23.7984L54.2425 23.5946C53.2017 24.3347 51.9612 24.2976 50.8732 24.2976V24.5476V24.7976C51.9206 24.7976 53.3374 24.8517 54.5323 24.0021L54.3874 23.7984ZM50.8732 24.5476V24.2976H49.1176V24.5476V24.7976H50.8732V24.5476ZM49.1176 24.5476H49.3676V17.2888H49.1176H48.8676V24.5476H49.1176ZM52.247 29.8179V30.0679C55.5928 30.0679 58.2443 29.1216 60.0958 27.3084L59.9209 27.1298L59.746 26.9512C58.0113 28.65 55.4987 29.5679 52.247 29.5679V29.8179ZM59.9209 27.1298L60.0957 27.3086C62.3742 25.0812 62.7063 22.0298 62.7063 20.4435H62.4563H62.2063C62.2063 21.9849 61.8791 24.8659 59.7462 26.9511L59.9209 27.1298ZM62.4563 20.4435H62.7063C62.7063 18.7409 62.2958 15.3878 59.5 12.9549L59.3359 13.1435L59.1718 13.3321C61.8071 15.6254 62.2063 18.7997 62.2063 20.4435H62.4563ZM59.3359 13.1435L59.4987 12.9538C57.2075 10.987 54.7616 10.5054 51.3849 10.5054V10.7554V11.0054C54.7085 11.0054 57.0126 11.4786 59.1731 13.3332L59.3359 13.1435ZM51.3849 10.7554V10.5054H42.448V10.7554V11.0054H51.3849V10.7554ZM42.448 10.7554H42.198V39.7924H42.448H42.698V10.7554H42.448ZM42.448 39.7924V40.0424H49.2453V39.7924V39.5424H42.448V39.7924ZM49.2453 39.7924H49.4953V29.8179H49.2453H48.9953V39.7924H49.2453ZM49.2453 29.8179V30.0679H52.247V29.8179V29.5679H49.2453V29.8179Z" fill="#80949F"/>
<path fill-rule="evenodd" clip-rule="evenodd" d="M82.8477 24.4687C81.3699 23.1861 79.307 22.4425 76.9657 21.6713C75.2975 21.1027 74.3784 20.7894 73.7656 20.2421C73.2819 19.8399 73.0663 19.4033 73.0663 18.8262C73.0663 17.5622 73.9431 16.2113 76.4046 16.2113C78.0775 16.2113 79.4781 16.912 80.5679 18.293L81.0005 18.8414L84.59 14.3656L84.2627 14.0445C82.0674 11.8924 79.1746 10.7554 75.8968 10.7554C69.2835 10.7554 66.3232 14.9699 66.3232 19.1468C66.3232 21.3882 67.1392 23.196 68.7435 24.5175C70.1799 25.7234 71.9315 26.3991 73.6116 26.9507L73.8015 27.0123C75.2935 27.4954 76.8366 27.9954 77.7582 28.8034C78.3994 29.3805 78.6851 30.0076 78.6851 30.8367C78.6851 32.7368 77.1576 34.0137 74.8842 34.0137C73.0871 34.0137 70.7208 33.1508 69.4688 30.7296L69.1413 30.0953L64.6797 34.1411L64.9428 34.5056C66.3663 36.4801 69.5784 39.7924 75.0959 39.7924C81.1798 39.7924 85.4291 35.9608 85.4291 30.4751C85.4291 27.3374 84.0238 25.4752 82.8477 24.4687Z" fill="#6B7B84"/>
<path d="M82.8477 24.4687C81.3699 23.1861 79.307 22.4425 76.9657 21.6713C75.2975 21.1027 74.3784 20.7894 73.7656 20.2421C73.2819 19.8399 73.0663 19.4033 73.0663 18.8262C73.0663 17.5622 73.9431 16.2113 76.4046 16.2113C78.0775 16.2113 79.4781 16.912 80.5679 18.293L81.0005 18.8414L84.59 14.3656L84.2627 14.0445C82.0674 11.8924 79.1746 10.7554 75.8968 10.7554C69.2835 10.7554 66.3232 14.9699 66.3232 19.1468C66.3232 21.3882 67.1392 23.196 68.7435 24.5175C70.1799 25.7234 71.9315 26.3991 73.6116 26.9507L73.8015 27.0123C75.2935 27.4954 76.8366 27.9954 77.7582 28.8034C78.3994 29.3805 78.6851 30.0076 78.6851 30.8367C78.6851 32.7368 77.1576 34.0137 74.8842 34.0137C73.0871 34.0137 70.7208 33.1508 69.4688 30.7296L69.1413 30.0953L64.6797 34.1411L64.9428 34.5056C66.3663 36.4801 69.5784 39.7924 75.0959 39.7924C81.1798 39.7924 85.4291 35.9608 85.4291 30.4751C85.4291 27.3374 84.0238 25.4752 82.8477 24.4687" stroke="#80949F" stroke-width="0.5"/>
</svg>
