<svg width="42" height="40" viewBox="0 0 42 40" fill="none" xmlns="http://www.w3.org/2000/svg">
<rect x="0.5" width="40.8333" height="40" rx="20" fill="#FF3E79"/>
<path d="M19.1384 23.4583L19.5557 23.0494L17.803 21.3322L17.3857 21.7411L17.1771 21.5367C16.8433 21.1687 16.5094 20.9643 16.1756 21.0052C15.9252 21.0052 15.7166 21.1687 15.5496 21.414C15.2993 21.8229 15.4245 22.2726 15.4662 22.5588C15.4662 22.6406 15.5079 22.6815 15.5079 22.7632C15.5079 22.8859 15.5079 23.0494 15.2158 23.0903C14.7985 23.213 14.256 23.3356 13.7136 23.6218C12.9624 24.0307 12.4617 24.3987 12.1696 24.7666C10.6256 26.7291 10.709 28.4055 10.709 28.4872C10.709 28.6099 10.7508 28.6917 10.8342 28.7325L11.9609 29.8773C12.0444 29.9591 12.1278 30 12.2113 30C12.2113 30 12.253 30 12.3365 30C12.7538 30 14.256 29.9182 16.0087 28.569C16.3842 28.2828 16.7598 27.7922 17.1771 27.0562C17.4692 26.5656 17.6361 26.0341 17.7196 25.5844C17.803 25.2982 17.9282 25.2982 18.0534 25.2982C18.0951 25.2982 18.1786 25.339 18.2621 25.339C18.429 25.3799 18.5959 25.4208 18.8045 25.4208C19.0132 25.4208 19.2218 25.3799 19.4305 25.2573C19.6808 25.0937 19.8478 24.8893 19.8895 24.644C19.9312 24.3169 19.7643 23.9898 19.3887 23.7036L19.1384 23.4583Z" fill="white"/>
<path d="M27.9441 14.8784L29.1026 14.326C29.1455 14.2835 29.2313 14.241 29.2742 14.1986L31.0333 11.8616C31.162 11.6916 31.162 11.4367 30.9903 11.3092L29.789 10.1195C29.6603 9.99199 29.4029 9.9495 29.2313 10.077L26.8715 11.8191C26.8286 11.8616 26.7857 11.9041 26.7428 11.989L26.185 13.1363L21.9375 17.2154L23.7395 19L27.9441 14.8784Z" fill="white"/>
<path d="M28.9328 23.0448C27.9231 22.0036 26.4692 21.6288 25.096 22.0036L18.5128 15.1733C18.5936 14.7985 18.634 14.4653 18.634 14.0905C18.634 13.0493 18.2301 12.0081 17.4627 11.2167C16.4126 10.0923 14.8375 9.71742 13.3835 10.2172C13.3028 10.2588 13.1816 10.3838 13.1412 10.5504C13.1412 10.6753 13.1816 10.8003 13.2624 10.9252L15.2414 12.966C15.6856 13.4241 15.6856 14.2154 15.2414 14.6735C14.7971 15.1317 14.0298 15.1317 13.5855 14.6735L11.6065 12.6328C11.4853 12.5495 11.3642 12.5078 11.2026 12.5495C11.0814 12.5495 10.9603 12.6744 10.9199 12.7994C10.4352 14.2571 10.7987 15.8813 11.8488 16.9642C12.5758 17.7555 13.6259 18.172 14.676 18.172C14.9991 18.172 15.3625 18.1303 15.6856 18.047L22.3092 24.8773C21.9458 26.2933 22.3496 27.7927 23.3189 28.8339C24.0863 29.6252 25.0556 30 26.1057 30C26.55 30 26.9538 29.9167 27.3981 29.7918C27.5193 29.7501 27.6404 29.6252 27.6808 29.5002C27.7212 29.3753 27.6808 29.2087 27.5597 29.1254L25.5807 27.0846C25.3787 26.8764 25.2172 26.5432 25.2172 26.21C25.2172 25.8768 25.3383 25.5853 25.5807 25.3354C25.823 25.0855 26.1057 24.9606 26.4288 24.9606C26.7519 24.9606 27.0346 25.0855 27.2769 25.3354L29.2559 27.3762C29.3771 27.4595 29.4983 27.5011 29.6194 27.5011C29.7406 27.4595 29.8618 27.3762 29.9021 27.2512C30.0233 26.8348 30.1041 26.3766 30.1041 25.9185C30.1041 24.8356 29.7002 23.7944 28.9328 23.0448Z" fill="white"/>
</svg>
